<svg xmlns="http://www.w3.org/2000/svg" viewBox="-40 -1000 4174 1340" width="600">
  <style>@keyframes d0 { 0%,0.00% { stroke-dashoffset:824.1 } 3.91%,89.01% { stroke-dashoffset:0 } 92.30%,100% { stroke-dashoffset:824.1 } } @keyframes o0 { 0%,0.00% { opacity:0 } 0.00%,89.01% { opacity:1 } 92.30%,100% { opacity:0 } } @keyframes d1 { 0%,6.22% { stroke-dashoffset:733.8 } 9.65%,89.01% { stroke-dashoffset:0 } 92.30%,100% { stroke-dashoffset:733.8 } } @keyframes o1 { 0%,6.22% { opacity:0 } 6.22%,89.01% { opacity:1 } 92.30%,100% { opacity:0 } } @keyframes d2 { 0%,11.96% { stroke-dashoffset:418.0 } 13.79%,89.01% { stroke-dashoffset:0 } 92.30%,100% { stroke-dashoffset:418.0 } } @keyframes o2 { 0%,11.96% { opacity:0 } 11.96%,89.01% { opacity:1 } 92.30%,100% { opacity:0 } } @keyframes d3 { 0%,14.34% { stroke-dashoffset:940.2 } 18.88%,89.01% { stroke-dashoffset:0 } 92.30%,100% { stroke-dashoffset:940.2 } } @keyframes o3 { 0%,14.34% { opacity:0 } 14.34%,89.01% { opacity:1 } 92.30%,100% { opacity:0 } } @keyframes d4 { 0%,19.43% { stroke-dashoffset:679.0 } 22.62%,89.01% { stroke-dashoffset:0 } 92.30%,100% { stroke-dashoffset:679.0 } } @keyframes o4 { 0%,19.43% { opacity:0 } 19.43%,89.01% { opacity:1 } 92.30%,100% { opacity:0 } } @keyframes d5 { 0%,23.17% { stroke-dashoffset:679.0 } 26.35%,89.01% { stroke-dashoffset:0 } 92.30%,100% { stroke-dashoffset:679.0 } } @keyframes o5 { 0%,23.17% { opacity:0 } 23.17%,89.01% { opacity:1 } 92.30%,100% { opacity:0 } } @keyframes d6 { 0%,26.90% { stroke-dashoffset:883.5 } 31.15%,89.01% { stroke-dashoffset:0 } 92.30%,100% { stroke-dashoffset:883.5 } } @keyframes o6 { 0%,26.90% { opacity:0 } 26.90%,89.01% { opacity:1 } 92.30%,100% { opacity:0 } } @keyframes d7 { 0%,32.80% { stroke-dashoffset:1388.4 } 39.55%,89.01% { stroke-dashoffset:0 } 92.30%,100% { stroke-dashoffset:1388.4 } } @keyframes o7 { 0%,32.80% { opacity:0 } 32.80%,89.01% { opacity:1 } 92.30%,100% { opacity:0 } } @keyframes d8 { 0%,41.86% { stroke-dashoffset:1253.5 } 47.94%,89.01% { stroke-dashoffset:0 } 92.30%,100% { stroke-dashoffset:1253.5 } } @keyframes o8 { 0%,41.86% { opacity:0 } 41.86%,89.01% { opacity:1 } 92.30%,100% { opacity:0 } } @keyframes d9 { 0%,48.49% { stroke-dashoffset:883.5 } 52.74%,89.01% { stroke-dashoffset:0 } 92.30%,100% { stroke-dashoffset:883.5 } } @keyframes o9 { 0%,48.49% { opacity:0 } 48.49%,89.01% { opacity:1 } 92.30%,100% { opacity:0 } } @keyframes d10 { 0%,53.29% { stroke-dashoffset:498.9 } 55.55%,89.01% { stroke-dashoffset:0 } 92.30%,100% { stroke-dashoffset:498.9 } } @keyframes o10 { 0%,53.29% { opacity:0 } 53.29%,89.01% { opacity:1 } 92.30%,100% { opacity:0 } } @keyframes d11 { 0%,57.86% { stroke-dashoffset:259.8 } 58.82%,89.01% { stroke-dashoffset:0 } 92.30%,100% { stroke-dashoffset:259.8 } } @keyframes o11 { 0%,57.86% { opacity:0 } 57.86%,89.01% { opacity:1 } 92.30%,100% { opacity:0 } } @keyframes d12 { 0%,59.37% { stroke-dashoffset:679.0 } 62.55%,89.01% { stroke-dashoffset:0 } 92.30%,100% { stroke-dashoffset:679.0 } } @keyframes o12 { 0%,59.37% { opacity:0 } 59.37%,89.01% { opacity:1 } 92.30%,100% { opacity:0 } } @keyframes d13 { 0%,63.10% { stroke-dashoffset:1192.6 } 68.90%,89.01% { stroke-dashoffset:0 } 92.30%,100% { stroke-dashoffset:1192.6 } } @keyframes o13 { 0%,63.10% { opacity:0 } 63.10%,89.01% { opacity:1 } 92.30%,100% { opacity:0 } } @keyframes d14 { 0%,71.21% { stroke-dashoffset:212.3 } 71.97%,89.01% { stroke-dashoffset:0 } 92.30%,100% { stroke-dashoffset:212.3 } } @keyframes o14 { 0%,71.21% { opacity:0 } 71.21%,89.01% { opacity:1 } 92.30%,100% { opacity:0 } } .s0 { animation: d0 9.10s infinite, o0 9.10s infinite } .s1 { animation: d1 9.10s infinite, o1 9.10s infinite } .s2 { animation: d2 9.10s infinite, o2 9.10s infinite } .s3 { animation: d3 9.10s infinite, o3 9.10s infinite } .s4 { animation: d4 9.10s infinite, o4 9.10s infinite } .s5 { animation: d5 9.10s infinite, o5 9.10s infinite } .s6 { animation: d6 9.10s infinite, o6 9.10s infinite } .s7 { animation: d7 9.10s infinite, o7 9.10s infinite } .s8 { animation: d8 9.10s infinite, o8 9.10s infinite } .s9 { animation: d9 9.10s infinite, o9 9.10s infinite } .s10 { animation: d10 9.10s infinite, o10 9.10s infinite } .s11 { animation: d11 9.10s infinite, o11 9.10s infinite } .s12 { animation: d12 9.10s infinite, o12 9.10s infinite } .s13 { animation: d13 9.10s infinite, o13 9.10s infinite } .s14 { animation: d14 9.10s infinite, o14 9.10s infinite }</style>
  <path d="M 347.4 -670.7 L 349.6 -660.0 L 302.2 -565.1 L 226.8 -375.5 L 220.3 -326.0 L 198.8 -293.7 L 155.7 -149.3 L 110.4 33.8 L 112.6 46.8" fill="none" stroke="#1a1a1a" stroke-width="61.9" stroke-linecap="round" stroke-linejoin="round"
    stroke-dasharray="824.1" class="s0"/>
  <path d="M 218.2 -323.8 L 224.6 -317.4 L 418.5 -323.8 L 556.4 -321.7 L 573.7 -338.9 L 636.1 -528.5 L 674.9 -623.3" fill="none" stroke="#1a1a1a" stroke-width="66.2" stroke-linecap="round" stroke-linejoin="round"
    stroke-dasharray="733.8" class="s1"/>
  <path d="M 571.5 -332.4 L 554.3 -319.5 L 547.8 -259.2 L 498.3 -99.8 L 474.6 -7.1 L 476.7 3.7" fill="none" stroke="#1a1a1a" stroke-width="62.2" stroke-linecap="round" stroke-linejoin="round"
    stroke-dasharray="418.0" class="s2"/>
  <path d="M 758.8 -236.7 L 767.0 -227.5 L 774.1 -225.5 L 807.8 -222.4 L 837.4 -216.3 L 864.9 -219.4 L 878.2 -223.4 L 894.5 -232.6 L 930.2 -265.3 L 938.4 -278.6 L 943.5 -297.9 L 944.5 -311.2 L 940.4 -327.5 L 921.0 -349.0 L 911.9 -353.1 L 889.4 -356.1 L 873.1 -356.1 L 846.5 -349.0 L 830.2 -339.8 L 788.4 -301.0 L 769.0 -275.5 L 759.8 -237.7 L 744.5 -227.5 L 739.4 -218.3 L 730.2 -185.7 L 726.1 -156.1 L 730.2 -107.1 L 740.4 -77.5 L 762.9 -55.1 L 792.5 -43.8 L 809.8 -41.8 L 849.6 -51.0 L 882.3 -72.4 L 905.7 -94.9 L 914.9 -96.9" fill="none" stroke="#1a1a1a" stroke-width="54.0" stroke-linecap="round" stroke-linejoin="round"
    stroke-dasharray="940.2" class="s3"/>
  <path d="M 1243.0 -616.5 L 1246.6 -602.1 L 1237.6 -571.4 L 1143.9 -349.7 L 1134.8 -313.7 L 1125.8 -299.3 L 1120.4 -268.6 L 1109.6 -248.8 L 1088.0 -183.9 L 1061.0 -77.6 L 1064.6 -28.9" fill="none" stroke="#1a1a1a" stroke-width="56.7" stroke-linecap="round" stroke-linejoin="round"
    stroke-dasharray="679.0" class="s4"/>
  <path d="M 1442.0 -616.5 L 1445.6 -602.1 L 1436.6 -571.4 L 1342.9 -349.7 L 1333.8 -313.7 L 1324.8 -299.3 L 1319.4 -268.6 L 1308.6 -248.8 L 1287.0 -183.9 L 1260.0 -77.6 L 1263.6 -28.9" fill="none" stroke="#1a1a1a" stroke-width="56.7" stroke-linecap="round" stroke-linejoin="round"
    stroke-dasharray="679.0" class="s5"/>
  <path d="M 1472.6 -102.4 L 1475.6 -142.2 L 1483.5 -167.1 L 1511.4 -222.9 L 1554.2 -282.6 L 1579.1 -308.5 L 1604.0 -327.4 L 1616.9 -334.4 L 1655.8 -341.3 L 1690.6 -331.4 L 1703.5 -317.4 L 1710.5 -280.6 L 1708.5 -247.8 L 1703.5 -221.9 L 1697.6 -205.0 L 1679.7 -170.1 L 1657.8 -137.3 L 1622.9 -96.5 L 1591.1 -70.6 L 1561.2 -52.6 L 1546.3 -47.7 L 1519.4 -43.7 L 1505.4 -46.7 L 1489.5 -56.6 L 1477.6 -77.5 L 1472.6 -102.4" fill="none" stroke="#1a1a1a" stroke-width="56.8" stroke-linecap="round" stroke-linejoin="round"
    stroke-dasharray="883.5" class="s6"/>
  <path d="M 2251.9 -599.9 L 2255.9 -573.7 L 2217.6 -452.8 L 2167.2 -186.8 L 2157.2 -110.3 L 2153.1 -23.6 L 2165.2 -13.5 L 2211.6 -27.6 L 2223.7 -35.7 L 2243.8 -61.9 L 2326.4 -200.9 L 2425.2 -394.4 L 2437.3 -412.5 L 2481.6 -438.7 L 2503.8 -501.2 L 2544.1 -587.8 L 2542.0 -591.9" fill="none" stroke="#1a1a1a" stroke-width="70.1" stroke-linecap="round" stroke-linejoin="round"
    stroke-dasharray="1388.4" class="s7"/>
  <path d="M 2479.6 -436.7 L 2489.6 -422.6 L 2487.6 -378.3 L 2445.3 -166.7 L 2441.3 -51.8 L 2449.3 -11.5 L 2461.4 2.6 L 2481.6 8.6 L 2515.8 -1.4 L 2540.0 -23.6 L 2570.2 -61.9 L 2642.8 -184.8 L 2737.5 -382.3 L 2822.1 -599.9" fill="none" stroke="#1a1a1a" stroke-width="67.8" stroke-linecap="round" stroke-linejoin="round"
    stroke-dasharray="1253.5" class="s8"/>
  <path d="M 2855.6 -102.4 L 2858.6 -142.2 L 2866.5 -167.1 L 2894.4 -222.9 L 2937.2 -282.6 L 2962.1 -308.5 L 2987.0 -327.4 L 2999.9 -334.4 L 3038.8 -341.3 L 3073.6 -331.4 L 3086.6 -317.4 L 3093.5 -280.6 L 3091.5 -247.8 L 3086.6 -221.9 L 3080.6 -205.0 L 3062.7 -170.1 L 3040.8 -137.3 L 3005.9 -96.5 L 2974.1 -70.6 L 2944.2 -52.6 L 2929.3 -47.7 L 2902.4 -43.7 L 2888.4 -46.7 L 2872.5 -56.6 L 2860.6 -77.5 L 2855.6 -102.4" fill="none" stroke="#1a1a1a" stroke-width="56.8" stroke-linecap="round" stroke-linejoin="round"
    stroke-dasharray="883.5" class="s9"/>
  <path d="M 3253.0 -60.1 L 3250.9 -75.5 L 3268.4 -147.7 L 3282.9 -183.8 L 3292.2 -194.1 L 3334.4 -209.6 L 3360.2 -235.4 L 3380.9 -251.9 L 3426.2 -282.8 L 3463.4 -304.5 L 3501.5 -317.9 L 3517.0 -315.8 L 3539.7 -305.5 L 3552.0 -304.5" fill="none" stroke="#1a1a1a" stroke-width="57.0" stroke-linecap="round" stroke-linejoin="round"
    stroke-dasharray="498.9" class="s10"/>
  <path d="M 3341.7 -364.3 L 3291.1 -250.8 L 3282.9 -199.3 L 3288.0 -190.0" fill="none" stroke="#1a1a1a" stroke-width="72.7" stroke-linecap="round" stroke-linejoin="round"
    stroke-dasharray="259.8" class="s11"/>
  <path d="M 3797.0 -616.5 L 3800.6 -602.1 L 3791.6 -571.4 L 3697.9 -349.7 L 3688.8 -313.7 L 3679.8 -299.3 L 3674.4 -268.6 L 3663.6 -248.8 L 3642.0 -183.9 L 3615.0 -77.6 L 3618.6 -28.9" fill="none" stroke="#1a1a1a" stroke-width="56.7" stroke-linecap="round" stroke-linejoin="round"
    stroke-dasharray="679.0" class="s12"/>
  <path d="M 4191.1 -604.0 L 4191.1 -596.8 L 4127.5 -453.4 L 4087.6 -333.6 L 4080.4 -301.0 L 4064.0 -282.8 L 4074.9 -288.3 L 4062.2 -281.0 L 4029.5 -295.5 L 3971.5 -308.2 L 3940.6 -302.8 L 3926.1 -293.7 L 3895.3 -261.1 L 3866.2 -222.9 L 3839.0 -166.7 L 3828.1 -123.1 L 3828.1 -103.2 L 3835.4 -79.6 L 3848.1 -70.5 L 3868.0 -66.9 L 3909.8 -74.1 L 3935.2 -86.8 L 4000.5 -137.7 L 4036.8 -148.5 L 4049.5 -157.6 L 4058.6 -210.2 L 4062.2 -281.0" fill="none" stroke="#1a1a1a" stroke-width="61.8" stroke-linecap="round" stroke-linejoin="round"
    stroke-dasharray="1192.6" class="s13"/>
  <path d="M 4044.1 -152.2 L 4047.7 -148.5 L 4045.9 -72.3 L 4056.8 -8.8" fill="none" stroke="#1a1a1a" stroke-width="66.5" stroke-linecap="round" stroke-linejoin="round"
    stroke-dasharray="212.3" class="s14"/>
</svg>