<svg xmlns="http://www.w3.org/2000/svg" width="1em" height="1em" viewBox="0 -800 238 1250">
  <path d="M 255.18 -188.48 L 259.9 -200.28 L 263.83 -225.45 L 263.83 -242.75 L 259.9 -252.98 L 249.68 -263.99 L 240.24 -268.7 L 211.14 -267.13 L 195.41 -262.41 L 173.39 -252.19 L 143.5 -231.74 L 112.83 -201.85 L 90.02 -173.54 L 67.99 -139.72 L 51.48 -107.47 L 41.25 -81.52 L 35.75 -50.06 L 35.75 -42.98 L 42.04 -21.74 L 49.12 -13.88 L 58.56 -8.37 L 79.01 -5.23 L 112.83 -9.16 L 152.94 -23.32 L 172.6 -33.54 L 200.91 -52.42 L 233.95 -79.16 L 270.91 -115.34 L 286.64 -136.57 L 289.79 -144.44" fill="none" stroke="currentColor" stroke-width="25.5" stroke-linecap="round" stroke-linejoin="round"
    stroke-dasharray="772.5" stroke-dashoffset="772.5" opacity="0">
    <animate attributeName="opacity" from="0" to="1" dur="0.001s" begin="0.000s" fill="freeze"/>
    <animate attributeName="stroke-dashoffset" from="772.5" to="0" dur="0.249s" begin="0.000s" fill="freeze"/>
  </path>
  <circle cx="116.76" cy="-205.78" r="13.0" fill="currentColor" opacity="0">
    <animate attributeName="opacity" from="0" to="1" dur="0.001s" begin="0.399s" fill="freeze"/>
  </circle>
</svg>