<svg xmlns="http://www.w3.org/2000/svg" width="1em" height="1em" viewBox="0 -800 198 1250">
  <path d="M 77.45 -245.92 L 108.59 -259.63 L 143.48 -260.87 L 152.2 -254.64 L 153.44 -240.94 L 149.7 -224.75 L 92.4 -91.45 L 77.45 -24.18 L 81.19 -20.44 L 91.15 -16.71 L 106.1 -16.71 L 124.79 -20.44 L 140.98 -29.16 L 168.39 -50.34 L 213.24 -93.94 L 239.4 -125.09 L 248.12 -141.28" fill="none" stroke="currentColor" stroke-width="25.3" stroke-linecap="round" stroke-linejoin="round"
    stroke-dasharray="573.9" stroke-dashoffset="573.9" opacity="0">
    <animate attributeName="opacity" from="0" to="1" dur="0.001s" begin="0.000s" fill="freeze"/>
    <animate attributeName="stroke-dashoffset" from="573.9" to="0" dur="0.183s" begin="0.000s" fill="freeze"/>
  </path>
  <path d="M 33.85 -113.87 L 45.06 -131.31 L 122.3 -227.24 L 169.64 -265.86 L 189.57 -263.36 L 275.52 -270.84" fill="none" stroke="currentColor" stroke-width="17.2" stroke-linecap="round" stroke-linejoin="round"
    stroke-dasharray="328.5" stroke-dashoffset="328.5" opacity="0">
    <animate attributeName="opacity" from="0" to="1" dur="0.001s" begin="0.333s" fill="freeze"/>
    <animate attributeName="stroke-dashoffset" from="328.5" to="0" dur="0.104s" begin="0.333s" fill="freeze"/>
  </path>
  <path d="M 139.74 -238.45 L 150.95 -248.41 L 142.23 -235.96 L 167.14 -263.36 L 155.93 -257.14 L 172.13 -269.59 L 175.86 -287.03 L 236.91 -396.66 L 286.74 -445.24" fill="none" stroke="currentColor" stroke-width="27.2" stroke-linecap="round" stroke-linejoin="round"
    stroke-dasharray="340.6" stroke-dashoffset="340.6" opacity="0">
    <animate attributeName="opacity" from="0" to="1" dur="0.001s" begin="0.587s" fill="freeze"/>
    <animate attributeName="stroke-dashoffset" from="340.6" to="0" dur="0.104s" begin="0.587s" fill="freeze"/>
  </path>
</svg>