<svg xmlns="http://www.w3.org/2000/svg" width="1em" height="1em" viewBox="0 -800 608 1250">
  <path d="M 303.64 -94.57 L 294.18 -121.06 L 288.5 -157 L 303.64 -177.82 L 318.78 -187.28 L 367.97 -198.63 L 407.7 -198.63 L 420.94 -208.09 L 437.97 -192.95 L 449.32 -198.63 L 600.68 -192.95 L 630.96 -208.09" fill="none" stroke="currentColor" stroke-width="27.1" stroke-linecap="round" stroke-linejoin="round"
    stroke-dasharray="462.5" stroke-dashoffset="462.5" opacity="0">
    <animate attributeName="opacity" from="0" to="1" dur="0.001s" begin="0.000s" fill="freeze"/>
    <animate attributeName="stroke-dashoffset" from="462.5" to="0" dur="0.145s" begin="0.000s" fill="freeze"/>
  </path>
  <path d="M 526.9 -192.95 L 526.9 -175.92 L 509.87 -136.19 L 492.84 -113.49 L 481.49 -105.92 L 483.38 -88.89 L 481.49 -105.92 L 473.92 -111.6 L 443.65 -168.36 L 439.86 -185.38 L 417.16 -215.66 L 417.16 -223.22 L 375.54 -317.82 L 366.08 -363.23 L 366.08 -402.96 L 371.75 -427.56 L 383.1 -448.37 L 402.02 -467.29 L 432.3 -478.64 L 460.68 -472.97 L 479.6 -452.16 L 481.49 -427.56 L 477.7 -414.32 L 460.68 -387.83 L 426.62 -349.99 L 400.13 -329.18 L 390.67 -327.28 L 379.32 -312.15 L 254.45 -240.25 L 186.34 -183.49 L 161.74 -151.33 L 148.5 -119.16 L 140.93 -75.65 L 142.82 -60.51 L 156.06 -32.13 L 186.34 -3.75 L 235.53 13.28 L 275.26 13.28 L 337.7 3.82 L 398.24 -20.78 L 483.38 -87 L 489.06 -85.11 L 542.03 0.03 L 595.01 62.47 L 632.85 85.17 L 668.8 88.96 L 706.64 79.5 L 731.23 62.47 L 774.75 18.95 L 791.78 -5.64" fill="none" stroke="currentColor" stroke-width="33.3" stroke-linecap="round" stroke-linejoin="round"
    stroke-dasharray="2041.3" stroke-dashoffset="2041.3" opacity="0">
    <animate attributeName="opacity" from="0" to="1" dur="0.001s" begin="0.295s" fill="freeze"/>
    <animate attributeName="stroke-dashoffset" from="2041.3" to="0" dur="0.669s" begin="0.295s" fill="freeze"/>
  </path>
  <path d="M 434.19 -192.95 L 436.08 -192.95" fill="none" stroke="currentColor" stroke-width="42.0" stroke-linecap="round" stroke-linejoin="round"
    stroke-dasharray="43.9" stroke-dashoffset="43.9" opacity="0">
    <animate attributeName="opacity" from="0" to="1" dur="0.001s" begin="1.114s" fill="freeze"/>
    <animate attributeName="stroke-dashoffset" from="43.9" to="0" dur="0.001s" begin="1.114s" fill="freeze"/>
  </path>
</svg>