<svg xmlns="http://www.w3.org/2000/svg" width="1em" height="1em" viewBox="0 -800 432 1250">
  <path d="M 75.1 -386 L 46.43 -416.71 L 34.15 -474.04 L 71 -510.89 L 122.19 -527.27 L 199.99 -535.46 L 349.44 -531.36 L 564.42 -508.84 L 693.4 -504.75 L 724.11 -517.03 L 750.73 -541.6" fill="none" stroke="currentColor" stroke-width="32.5" stroke-linecap="round" stroke-linejoin="round"
    stroke-dasharray="881.3" stroke-dashoffset="881.3" opacity="0">
    <animate attributeName="opacity" from="0" to="1" dur="0.001s" begin="0.000s" fill="freeze"/>
    <animate attributeName="stroke-dashoffset" from="881.3" to="0" dur="0.283s" begin="0.000s" fill="freeze"/>
  </path>
  <path d="M 44.39 -113.7 L 42.34 -76.85 L 50.53 -39.99 L 58.72 -23.61 L 97.62 9.14 L 134.47 17.33 L 161.09 17.33 L 206.13 0.95 L 242.98 -23.61 L 288.02 -74.8 L 318.73 -121.89 L 371.97 -230.4 L 433.39 -381.9 L 460 -435.14 L 500.95 -474.04 L 527.57 -490.42 L 539.85 -508.84" fill="none" stroke="currentColor" stroke-width="31.8" stroke-linecap="round" stroke-linejoin="round"
    stroke-dasharray="910.4" stroke-dashoffset="910.4" opacity="0">
    <animate attributeName="opacity" from="0" to="1" dur="0.001s" begin="0.433s" fill="freeze"/>
    <animate attributeName="stroke-dashoffset" from="910.4" to="0" dur="0.293s" begin="0.433s" fill="freeze"/>
  </path>
  <path d="M 470.24 -447.42 L 482.52 -461.75" fill="none" stroke="currentColor" stroke-width="36.8" stroke-linecap="round" stroke-linejoin="round"
    stroke-dasharray="55.7" stroke-dashoffset="55.7" opacity="0">
    <animate attributeName="opacity" from="0" to="1" dur="0.001s" begin="0.876s" fill="freeze"/>
    <animate attributeName="stroke-dashoffset" from="55.7" to="0" dur="0.006s" begin="0.876s" fill="freeze"/>
  </path>
</svg>