<svg xmlns="http://www.w3.org/2000/svg" width="1em" height="1em" viewBox="0 -800 294 1250">
  <path d="M 34.29 -112.01 L 39.15 -122.55 L 106.49 -212.6 L 115.41 -216.66 L 131.64 -216.66 L 112.98 -207.73 L 118.66 -214.23 L 105.68 -211.79" fill="none" stroke="currentColor" stroke-width="17.0" stroke-linecap="round" stroke-linejoin="round"
    stroke-dasharray="209.6" stroke-dashoffset="209.6" opacity="0">
    <animate attributeName="opacity" from="0" to="1" dur="0.001s" begin="0.000s" fill="freeze"/>
    <animate attributeName="stroke-dashoffset" from="209.6" to="0" dur="0.064s" begin="0.000s" fill="freeze"/>
  </path>
  <path d="M 184.37 -276.69 L 146.24 -243.43 L 130.82 -211.79 L 128.39 -191.51 L 110.54 -127.42 L 102.43 -74.69 L 101.62 -39 L 103.24 -28.45 L 107.3 -20.34 L 116.22 -11.41 L 134.07 -12.22 L 158.41 -18.71 L 183.56 -38.18 L 200.59 -54.41 L 219.25 -76.31 L 246.83 -113.63 L 269.55 -148.51 L 295.51 -196.38 L 302 -213.41 L 306.06 -232.07 L 304.43 -247.49 L 297.94 -262.09 L 290.64 -271.01 L 285.77 -274.26 L 280.1 -275.07" fill="none" stroke="currentColor" stroke-width="28.7" stroke-linecap="round" stroke-linejoin="round"
    stroke-dasharray="684.4" stroke-dashoffset="684.4" opacity="0">
    <animate attributeName="opacity" from="0" to="1" dur="0.001s" begin="0.214s" fill="freeze"/>
    <animate attributeName="stroke-dashoffset" from="684.4" to="0" dur="0.219s" begin="0.214s" fill="freeze"/>
  </path>
  <path d="M 156.79 -253.17 L 157.6 -253.17" fill="none" stroke="currentColor" stroke-width="29.5" stroke-linecap="round" stroke-linejoin="round"
    stroke-dasharray="30.4" stroke-dashoffset="30.4" opacity="0">
    <animate attributeName="opacity" from="0" to="1" dur="0.001s" begin="0.583s" fill="freeze"/>
    <animate attributeName="stroke-dashoffset" from="30.4" to="0" dur="0.001s" begin="0.583s" fill="freeze"/>
  </path>
</svg>