<svg xmlns="http://www.w3.org/2000/svg" width="1em" height="1em" viewBox="0 -960 464 1260">
  <path d="M 190.19 -229.29 L 198.01 -239.07 L 207.78 -305.54 L 229.29 -356.38 L 264.49 -471.74 L 303.59 -561.68 L 307.5 -591.01 L 338.79 -626.21 L 352.47 -632.07 L 409.17 -632.07 L 452.19 -624.25 L 495.21 -600.79 L 526.49 -571.46 L 538.22 -551.91 L 549.95 -501.07 L 546.04 -465.88 L 524.53 -418.95 L 493.25 -368.11 L 444.37 -315.32 L 409.17 -287.95 L 301.64 -242.98 L 260.58 -237.11 L 198.01 -237.11 L 186.28 -227.33 L 166.72 -188.23 L 156.95 -141.3 L 110.02 3.38 L 111.98 15.12" fill="none" stroke="currentColor" stroke-width="62.3" stroke-linecap="round" stroke-linejoin="round"
    stroke-dasharray="1529.5" stroke-dashoffset="1529.5" opacity="0">
    <animate attributeName="opacity" from="0" to="1" dur="0.001s" begin="0.000s" fill="freeze"/>
    <animate attributeName="stroke-dashoffset" from="1529.5" to="0" dur="0.489s" begin="0.000s" fill="freeze"/>
  </path>
  <path d="M 463.92 -620.34 L 465.88 -618.38" fill="none" stroke="currentColor" stroke-width="60.8" stroke-linecap="round" stroke-linejoin="round"
    stroke-dasharray="63.5" stroke-dashoffset="63.5" opacity="0">
    <animate attributeName="opacity" from="0" to="1" dur="0.001s" begin="0.639s" fill="freeze"/>
    <animate attributeName="stroke-dashoffset" from="63.5" to="0" dur="0.001s" begin="0.639s" fill="freeze"/>
  </path>
</svg>