<svg xmlns="http://www.w3.org/2000/svg" width="1em" height="1em" viewBox="0 -960 720 1260">
  <path d="M 65.62 7.35 L 71.92 -15.75 L 101.32 -72.45 L 128.62 -116.55 L 235.72 -322.36 L 307.13 -444.16 L 321.83 -456.76 L 355.43 -469.36 L 372.23 -484.06 L 397.43 -542.86 L 401.63 -574.37 L 397.43 -597.47" fill="none" stroke="currentColor" stroke-width="72.7" stroke-linecap="round" stroke-linejoin="round"
    stroke-dasharray="782.3" stroke-dashoffset="782.3" opacity="0">
    <animate attributeName="opacity" from="0" to="1" dur="0.001s" begin="0.000s" fill="freeze"/>
    <animate attributeName="stroke-dashoffset" from="782.3" to="0" dur="0.237s" begin="0.000s" fill="freeze"/>
  </path>
  <path d="M 368.03 -477.76 L 376.43 -467.26 L 368.03 -379.06 L 336.53 -221.56 L 323.93 -110.25 L 332.33 -61.95 L 349.13 -53.55 L 363.83 -55.65 L 389.03 -64.05 L 397.43 -72.45 L 447.83 -141.75 L 695.64 -565.97 L 710.34 -582.77 L 741.84 -595.37 L 748.14 -605.87 L 750.24 -597.47 L 760.74 -591.17 L 754.44 -507.16 L 693.54 -271.96 L 662.03 -108.15 L 651.53 -22.05 L 653.63 15.75" fill="none" stroke="currentColor" stroke-width="72.3" stroke-linecap="round" stroke-linejoin="round"
    stroke-dasharray="1853.0" stroke-dashoffset="1853.0" opacity="0">
    <animate attributeName="opacity" from="0" to="1" dur="0.001s" begin="0.387s" fill="freeze"/>
    <animate attributeName="stroke-dashoffset" from="1853.0" to="0" dur="0.594s" begin="0.387s" fill="freeze"/>
  </path>
  <path d="M 706.14 -580.67 L 708.24 -580.67" fill="none" stroke="currentColor" stroke-width="56.8" stroke-linecap="round" stroke-linejoin="round"
    stroke-dasharray="58.9" stroke-dashoffset="58.9" opacity="0">
    <animate attributeName="opacity" from="0" to="1" dur="0.001s" begin="1.131s" fill="freeze"/>
    <animate attributeName="stroke-dashoffset" from="58.9" to="0" dur="0.001s" begin="1.131s" fill="freeze"/>
  </path>
</svg>