<svg xmlns="http://www.w3.org/2000/svg" width="1em" height="1em" viewBox="0 -750 285 1000">
  <path d="M 276.15 -64.07 L 247.04 -30.81 L 207.54 -22.49 L 197.15 -43.28 L 203.38 -118.12 L 228.33 -197.13 L 232.49 -232.47 L 240.8 -238.71 L 255.36 -288.6 L 301.1 -405.03 L 348.91 -502.74 L 432.07 -629.56 L 484.05 -687.77 L 519.39 -714.8 L 563.05 -733.51 L 604.63 -737.67 L 623.34 -721.03 L 623.34 -694.01" fill="none" stroke="currentColor" stroke-width="25.8" stroke-linecap="round" stroke-linejoin="round"
    stroke-dasharray="1038.9" stroke-dashoffset="1038.9" opacity="0">
    <animate attributeName="opacity" from="0" to="1" dur="0.001s" begin="0.000s" fill="freeze"/>
    <animate attributeName="stroke-dashoffset" from="1038.9" to="0" dur="0.338s" begin="0.000s" fill="freeze"/>
  </path>
  <path d="M 192.99 -251.18 L 232.49 -232.47 L 165.96 -249.1 L 132.7 -234.55 L 91.12 -199.21 L 59.93 -140.99 L 47.46 -66.15 L 51.62 -43.28 L 66.17 -24.57 L 99.43 -26.65 L 149.33 -66.15 L 182.59 -113.97 L 203.38 -118.12 L 188.83 -113.97" fill="none" stroke="currentColor" stroke-width="24.3" stroke-linecap="round" stroke-linejoin="round"
    stroke-dasharray="607.9" stroke-dashoffset="607.9" opacity="0">
    <animate attributeName="opacity" from="0" to="1" dur="0.001s" begin="0.488s" fill="freeze"/>
    <animate attributeName="stroke-dashoffset" from="607.9" to="0" dur="0.195s" begin="0.488s" fill="freeze"/>
  </path>
</svg>