<svg xmlns="http://www.w3.org/2000/svg" width="1em" height="1em" viewBox="0 -750 269 1000">
  <path d="M 52.87 -100.79 L 46.59 -95.76 L 35.27 -76.9 L 27.73 -41.69 L 45.33 -20.32 L 56.65 -14.03 L 83.05 -7.74 L 129.57 -10.26 L 157.23 -20.32 L 178.61 -37.92 L 188.67 -53.01 L 196.21 -89.47 L 191.18 -118.39 L 162.26 -157.37 L 154.72 -161.14 L 142.15 -148.57 L 90.59 -25.34 L 88.08 -9 L 80.54 -5.23 L 72.99 22.43 L 59.16 56.38 L 52.87 65.18" fill="none" stroke="currentColor" stroke-width="21.8" stroke-linecap="round" stroke-linejoin="round"
    stroke-dasharray="653.5" stroke-dashoffset="653.5" opacity="0">
    <animate attributeName="opacity" from="0" to="1" dur="0.001s" begin="0.000s" fill="freeze"/>
    <animate attributeName="stroke-dashoffset" from="653.5" to="0" dur="0.211s" begin="0.000s" fill="freeze"/>
  </path>
  <path d="M 242.73 -376.15 L 215.07 -315.79 L 213.81 -305.73 L 205.01 -296.93 L 205.01 -290.65 L 163.52 -196.34 L 159.75 -188.8 L 148.43 -178.74 L 154.72 -162.4 L 150.95 -173.71 L 137.12 -186.29 L 124.54 -203.89 L 118.26 -216.46 L 115.74 -239.09 L 122.03 -268.01 L 145.92 -294.42 L 161.01 -301.96 L 181.12 -305.73 L 206.27 -305.73 L 212.56 -300.7 L 226.39 -298.19 L 245.25 -280.59 L 243.99 -250.41 L 237.7 -230.29" fill="none" stroke="currentColor" stroke-width="22.4" stroke-linecap="round" stroke-linejoin="round"
    stroke-dasharray="577.7" stroke-dashoffset="577.7" opacity="0">
    <animate attributeName="opacity" from="0" to="1" dur="0.001s" begin="0.361s" fill="freeze"/>
    <animate attributeName="stroke-dashoffset" from="577.7" to="0" dur="0.185s" begin="0.361s" fill="freeze"/>
  </path>
</svg>