<svg xmlns="http://www.w3.org/2000/svg" width="1em" height="1em" viewBox="0 -750 634 1000">
  <path d="M 273.41 -181.63 L 214.14 -165.67 L 163.98 -142.87 L 122.95 -115.51 L 63.67 -60.8 L 27.2 3.03 L 15.8 62.31 L 22.64 101.06 L 56.84 146.66 L 77.35 158.06 L 113.83 167.18 L 168.54 169.46 L 246.05 158.06 L 305.33 137.54 L 344.08 117.02 L 398.8 75.99 L 458.07 18.99 L 485.43 -15.2 L 551.54 -122.35 L 594.86 -220.38 L 633.61 -332.09 L 670.09 -464.31 L 702 -537.27 L 765.84 -612.5 L 804.59 -635.3 L 784.08 -626.18 L 740.76 -621.62 L 672.37 -601.1 L 592.58 -555.5 L 542.42 -514.47 L 499.11 -462.03 L 460.35 -386.8 L 446.67 -313.85 L 448.95 -272.82 L 460.35 -238.62 L 487.71 -202.14 L 515.07 -183.91 L 560.66 -177.07 L 569.78 -170.23 L 581.18 -183.91 L 601.7 -179.35 L 633.61 -193.02" fill="none" stroke="currentColor" stroke-width="21.4" stroke-linecap="round" stroke-linejoin="round"
    stroke-dasharray="2512.7" stroke-dashoffset="2512.7" opacity="0">
    <animate attributeName="opacity" from="0" to="1" dur="0.001s" begin="0.000s" fill="freeze"/>
    <animate attributeName="stroke-dashoffset" from="2512.7" to="0" dur="0.830s" begin="0.000s" fill="freeze"/>
  </path>
</svg>