<svg xmlns="http://www.w3.org/2000/svg" width="1em" height="1em" viewBox="0 -1875 1342 2790">
  <path d="M 37.21 -388.82 L 162.26 -574.51 L 222.89 -646.51 L 264.58 -676.83 L 306.26 -688.19 L 355.52 -688.19 L 378.26 -676.83 L 404.79 -646.51 L 416.16 -570.72 L 442.68 -544.19 L 491.95 -566.93 L 586.68 -676.83 L 632.16 -710.93 L 689 -729.88 L 738.26 -722.3 L 768.58 -695.77 L 779.95 -673.04 L 791.32 -601.04 L 783.74 -510.09 L 791.32 -487.35 L 563.95 -78.08" fill="none" stroke="currentColor" stroke-width="75.8" stroke-linecap="round" stroke-linejoin="round"
    stroke-dasharray="1805.7" stroke-dashoffset="1805.7" opacity="0">
    <animate attributeName="opacity" from="0" to="1" dur="0.001s" begin="0.000s" fill="freeze"/>
    <animate attributeName="stroke-dashoffset" from="1805.7" to="0" dur="0.577s" begin="0.000s" fill="freeze"/>
  </path>
  <path d="M 135.73 -32.61 L 340.37 -339.56 L 412.37 -468.4 L 438.89 -544.19" fill="none" stroke="currentColor" stroke-width="117.5" stroke-linecap="round" stroke-linejoin="round"
    stroke-dasharray="714.3" stroke-dashoffset="714.3" opacity="0">
    <animate attributeName="opacity" from="0" to="1" dur="0.001s" begin="0.727s" fill="freeze"/>
    <animate attributeName="stroke-dashoffset" from="714.3" to="0" dur="0.199s" begin="0.727s" fill="freeze"/>
  </path>
  <path d="M 791.32 -491.14 L 855.74 -521.46 L 961.84 -627.56 L 1033.84 -669.25 L 1105.85 -669.25 L 1139.95 -638.93 L 1151.32 -551.77 L 1136.16 -487.35 L 1094.48 -392.61 L 984.58 -199.35 L 965.63 -134.93 L 973.21 -62.93 L 1011.11 -25.03 L 1079.32 -32.61 L 1177.85 -112.19 L 1299.11 -267.56 L 1344.58 -343.35" fill="none" stroke="currentColor" stroke-width="79.7" stroke-linecap="round" stroke-linejoin="round"
    stroke-dasharray="1655.6" stroke-dashoffset="1655.6" opacity="0">
    <animate attributeName="opacity" from="0" to="1" dur="0.001s" begin="1.076s" fill="freeze"/>
    <animate attributeName="stroke-dashoffset" from="1655.6" to="0" dur="0.525s" begin="1.076s" fill="freeze"/>
  </path>
</svg>