<svg xmlns="http://www.w3.org/2000/svg" width="1em" height="1em" viewBox="0 -1875 1573 2790">
  <path d="M 786.92 -238.91 L 713.48 -271.04 L 644.63 -344.47 L 594.15 -440.86 L 575.79 -551.01 L 575.79 -619.86 L 607.92 -762.14 L 662.99 -881.47 L 722.66 -964.09 L 796.09 -1046.71 L 883.3 -1115.55 L 1011.81 -1179.81 L 1108.2 -1202.76 L 1232.12 -1202.76 L 1328.51 -1170.63 L 1447.84 -1055.89 L 1479.97 -991.63 L 1493.74 -936.55 L 1502.92 -766.73 L 1484.56 -651.99 L 1443.25 -514.29 L 1342.28 -316.94 L 1209.17 -142.52 L 1099.02 -27.78 L 1007.22 45.65 L 851.17 137.45 L 653.81 197.12 L 497.76 201.71 L 415.15 187.94 L 341.71 160.4 L 263.68 109.91 L 190.25 41.07 L 130.58 -59.91 L 107.63 -124.17 L 93.86 -215.96 L 89.27 -358.24 L 98.45 -431.68 L 162.71 -665.76 L 259.09 -863.12 L 364.66 -1009.99 L 529.89 -1184.4 L 676.76 -1289.96 L 805.27 -1354.22 L 984.27 -1404.71 L 1076.07 -1413.89 L 1186.22 -1409.3 L 1305.56 -1372.58 L 1388.17 -1308.32" fill="none" stroke="currentColor" stroke-width="76.9" stroke-linecap="round" stroke-linejoin="round"
    stroke-dasharray="6277.9" stroke-dashoffset="6277.9" opacity="0">
    <animate attributeName="opacity" from="0" to="1" dur="0.001s" begin="0.000s" fill="freeze"/>
    <animate attributeName="stroke-dashoffset" from="6277.9" to="0" dur="2.067s" begin="0.000s" fill="freeze"/>
  </path>
</svg>