<svg xmlns="http://www.w3.org/2000/svg" width="1em" height="1em" viewBox="0 -1875 1452 2790">
  <path d="M 180.59 -547.08 L 475.65 -583.96 L 496.73 -784.18 L 565.23 -973.86 L 670.61 -1142.47 L 818.14 -1305.81 L 928.79 -1384.85 L 1018.36 -1427 L 1139.55 -1458.61 L 1250.2 -1453.34 L 1287.08 -1437.54 L 1345.04 -1384.85 L 1355.58 -1253.12 L 1308.16 -1126.67 L 1239.66 -1026.55 L 1118.47 -900.1 L 897.17 -752.57 L 681.14 -657.72 L 565.23 -620.84 L 480.92 -615.57 L 475.65 -510.19 L 507.27 -399.54 L 596.84 -278.36 L 665.34 -241.47 L 707.49 -230.94 L 844.48 -236.2 L 949.86 -273.09 L 1113.2 -373.2 L 1160.62 -373.2 L 1186.97 -389.01" fill="none" stroke="currentColor" stroke-width="81.5" stroke-linecap="round" stroke-linejoin="round"
    stroke-dasharray="4072.9" stroke-dashoffset="4072.9" opacity="0">
    <animate attributeName="opacity" from="0" to="1" dur="0.001s" begin="0.000s" fill="freeze"/>
    <animate attributeName="stroke-dashoffset" from="4072.9" to="0" dur="1.330s" begin="0.000s" fill="freeze"/>
  </path>
  <path d="M 359.74 -225.67 L 285.97 -262.55 L 170.05 -278.36 L 54.13 -246.74 L -9.09 -199.32 L -72.32 -120.29 L -93.4 -57.06 L -103.94 69.4 L -88.13 148.43 L -56.52 206.39 L 33.06 306.5 L 138.44 364.46 L 191.13 380.27 L 296.51 401.34 L 438.77 401.34 L 533.61 385.54 L 649.53 343.39 L 728.57 295.96 L 823.41 211.66 L 907.71 106.28 L 1155.35 -299.43 L 1186.97 -389.01 L 1476.76 -763.1" fill="none" stroke="currentColor" stroke-width="82.1" stroke-linecap="round" stroke-linejoin="round"
    stroke-dasharray="3098.5" stroke-dashoffset="3098.5" opacity="0">
    <animate attributeName="opacity" from="0" to="1" dur="0.001s" begin="1.480s" fill="freeze"/>
    <animate attributeName="stroke-dashoffset" from="3098.5" to="0" dur="1.005s" begin="1.480s" fill="freeze"/>
  </path>
  <circle cx="559.96" cy="-315.24" r="62.7" fill="currentColor" opacity="0">
    <animate attributeName="opacity" from="0" to="1" dur="0.001s" begin="2.635s" fill="freeze"/>
  </circle>
</svg>