<svg xmlns="http://www.w3.org/2000/svg" width="1em" height="1em" viewBox="0 -1875 1708 2790">
  <path d="M 953.01 -1260.31 L 811.34 -1302.29 L 664.43 -1323.27 L 569.98 -1323.27 L 444.05 -1302.29 L 349.61 -1270.8 L 244.67 -1207.84 L 129.23 -1076.66 L 92.5 -987.46 L 76.76 -908.76 L 76.76 -803.82 L 108.25 -683.14 L 160.72 -599.19 L 223.68 -541.47 L 276.15 -499.49 L 417.82 -431.28 L 596.22 -394.55 L 874.31 -399.8 L 905.79 -384.06 L 921.53 -394.55 L 1000.24 -478.51 L 1010.73 -530.98 L 1404.25 -1176.36 L 1482.96 -1276.05 L 1556.42 -1344.26 L 1671.85 -1422.97 L 1776.79 -1433.46 L 1824.01 -1422.97 L 1886.98 -1354.75 L 1897.47 -1312.78 L 1897.47 -1228.83 L 1865.99 -1102.9 L 1787.29 -950.74 L 1698.09 -835.3 L 1598.39 -740.86 L 1388.51 -583.45 L 1257.34 -515.23 L 1078.94 -447.02 L 1031.72 -447.02 L 1036.96 -473.26 L 1021.22 -452.27 L 994.99 -457.52 L 890.05 -373.57 L 869.06 -315.85 L 680.17 -100.72 L 664.43 -58.75 L 543.75 -63.99 L 423.07 -95.48 L 234.17 -95.48 L 181.7 -84.98 L 134.48 -53.5 L 108.25 -22.02 L 108.25 19.96 L 150.22 61.93 L 207.94 77.68 L 333.87 72.43 L 507.02 14.71 L 564.73 -53.5 L 653.93 -53.5 L 669.67 -32.51 L 701.16 -22.02 L 1015.98 67.18 L 1110.42 82.92 L 1210.12 82.92 L 1330.8 61.93 L 1456.72 -16.77" fill="none" stroke="currentColor" stroke-width="78.0" stroke-linecap="round" stroke-linejoin="round"
    stroke-dasharray="7914.3" stroke-dashoffset="7914.3" opacity="0">
    <animate attributeName="opacity" from="0" to="1" dur="0.001s" begin="0.000s" fill="freeze"/>
    <animate attributeName="stroke-dashoffset" from="7914.3" to="0" dur="2.612s" begin="0.000s" fill="freeze"/>
  </path>
</svg>