<svg xmlns="http://www.w3.org/2000/svg" width="1em" height="1em" viewBox="0 -1875 716 2790">
  <path d="M 246.3 -692.76 L 173.13 -589.11 L 124.36 -505.79 L 71.52 -398.08 L 34.94 -298.5 L 16.65 -219.24 L 14.62 -160.31 L 24.78 -101.37 L 34.94 -70.89 L 65.43 -32.28 L 110.13 -20.08 L 152.81 -24.15 L 203.62 -42.44 L 270.68 -79.02 L 382.46 -168.44 L 445.46 -229.4 L 496.26 -290.37 L 545.04 -361.5 L 555.2 -406.21 L 579.58 -420.44 L 599.91 -467.18 L 618.2 -528.14 L 628.36 -605.37 L 624.29 -662.27 L 608.04 -694.79 L 593.81 -698.85 L 569.42 -694.79 L 545.04 -664.31 L 532.84 -635.85 L 522.68 -591.14 L 518.62 -542.37 L 526.75 -459.05 L 538.94 -418.4 L 555.2 -406.21" fill="none" stroke="currentColor" stroke-width="64.3" stroke-linecap="round" stroke-linejoin="round"
    stroke-dasharray="2122.0" stroke-dashoffset="2122.0" opacity="0">
    <animate attributeName="opacity" from="0" to="1" dur="0.001s" begin="0.000s" fill="freeze"/>
    <animate attributeName="stroke-dashoffset" from="2122.0" to="0" dur="0.686s" begin="0.000s" fill="freeze"/>
  </path>
</svg>